<svg width="40" height="41.6" viewBox="-2 -2 46 46">
  <path
    d="M36.7,33.6A6.9,6.9,0,0,0,40,28.1V13.5a6.9,6.9,0,0,0-3.3-5.4L23.3.7a7.7,7.7,0,0,0-6.6,0L3.3,8.1A6.9,6.9,0,0,0,0,13.5V28.1a6.9,6.9,0,0,0,3.3,5.4l13.4,7.3a7.7,7.7,0,0,0,6.6,0Z"
    fill="#ffffff" fillRule="evenodd" stroke="#d5d5d5" strokeWidth="3px"
  />
  <path
    d="M20,9.8a11,11,0,1,0,11,11A11,11,0,0,0,20,9.8ZM20,30a9.2,9.2,0,0,1-7.1-15l4.5,4.5a9.4,9.4,0,0,0,.8,2c.7,1.4-.8,1.7-2.3,2s-1.5,1-1.5,2.1v.6h9.7l1.6,1.6A9.1,9.1,0,0,1,20,30Zm7.1-3.4L25.5,25c-.1-.7-.4-1.1-1.4-1.4l-2.3-2.3c2-3.9.4-6-1.8-6A2.6,2.6,0,0,0,17.5,17l-3.2-3.2A9.2,9.2,0,0,1,27.1,26.6Z"
    fill="#959595"
  />
</svg>
