<svg width="40" height="41.6" viewBox="-2 -2 46 46">
  <path
    d="M36.7,33.6A6.9,6.9,0,0,0,40,28.1V13.5a6.9,6.9,0,0,0-3.3-5.4L23.3.7a7.7,7.7,0,0,0-6.6,0L3.3,8.1A6.9,6.9,0,0,0,0,13.5V28.1a6.9,6.9,0,0,0,3.3,5.4l13.4,7.3a7.7,7.7,0,0,0,6.6,0Z"
    fill="#ffffff" fillRule="evenodd" stroke="#d5d5d5" strokeWidth="3px"
  />
  <path
    d="M27,10.8a2,2,0,0,0-2-2H15a2,2,0,0,0-2,2v20a2,2,0,0,0,2,2H25a2,2,0,0,0,2-2Zm-8.5,0h3a.5.5,0,1,1,0,1h-3a.5.5,0,1,1,0-1Zm1.5,20a1,1,0,1,1,1-1A1,1,0,0,1,20,30.8Zm5-3H15v-14H25Z"
    fill="#959595"
  />
</svg>
