<svg width="48" height="61.4" viewBox="0 0 48 61.4">
  <path d="M47.5,3.8a1,1,0,0,0-.9,0,19.3,19.3,0,0,1-8.6,2A18.6,18.6,0,0,1,25.8,1.4L24.7.3a1,1,0,0,0-1.4,0L22.2,1.4A18.6,18.6,0,0,1,10,5.7a19.3,19.3,0,0,1-8.6-2A1,1,0,0,0,0,4.6V26.8a36.4,36.4,0,0,0,19.1,32l4.4,2.4h.9l4.4-2.4A36.4,36.4,0,0,0,48,26.8V4.6A1,1,0,0,0,47.5,3.8Zm-1.5,23A34.5,34.5,0,0,1,28,57.2l-4,2.2-4-2.2A34.5,34.5,0,0,1,1.9,26.8V6.1A21.5,21.5,0,0,0,10,7.7,20.5,20.5,0,0,0,23.4,2.8l.6-.5.6.5A20.5,20.5,0,0,0,38,7.7a21.5,21.5,0,0,0,8.1-1.5ZM24.6,5.3a1,1,0,0,0-1.1,0A22.8,22.8,0,0,1,10,9.6a23.9,23.9,0,0,1-5-.5,1,1,0,0,0-1.2.9V26.8A32.6,32.6,0,0,0,20.9,55.5l2.6,1.4h.9l2.6-1.4A32.6,32.6,0,0,0,44.2,26.8V10A1,1,0,0,0,43,9.1a23.9,23.9,0,0,1-5,.5A22.5,22.5,0,0,1,24.6,5.3ZM42.2,26.8a30.7,30.7,0,0,1-16.1,27L24,54.9l-2.2-1.2a30.7,30.7,0,0,1-16.1-27V11.1a25.9,25.9,0,0,0,4.2.3A24.8,24.8,0,0,0,24,7.2a24.4,24.4,0,0,0,14,4.3,25.9,25.9,0,0,0,4.2-.3Zm-8.7-1H32a.7.7,0,0,1-.6-.4l-.8-1.7c-1.5-2.9-6.6-2.9-6.6-2.9s-5.1,0-6.6,2.9l-.8,1.7a.7.7,0,0,1-.6.4H14.4a.6.6,0,0,0-.5.7l.3,1.3a1.1,1.1,0,0,0,.9.9h.3a4.5,4.5,0,0,0-.1,5.3,1.7,1.7,0,0,1,.3,1v1.4a1.3,1.3,0,0,0,1.2,1.3h1.3A1.2,1.2,0,0,0,19,36.6v-.4a.4.4,0,0,1,.4-.4h9.1a.4.4,0,0,1,.4.4v.4a1.2,1.2,0,0,0,1.2,1.3h1.3a1.2,1.2,0,0,0,1.2-1.3V35.2a1.7,1.7,0,0,1,.3-1,4.5,4.5,0,0,0-.1-5.3H33a1.3,1.3,0,0,0,.9-1l.3-1.3A.6.6,0,0,0,33.6,25.8Zm-15.3-.7a3.5,3.5,0,0,1,2-2,11.5,11.5,0,0,1,3.7-.5,11.8,11.8,0,0,1,3.7.5,3.5,3.5,0,0,1,2,2l.6,1.4c0,.1,0,.2-.1.2H17.8c-.1,0-.2-.1-.1-.2Zm-.2,8.3a1.8,1.8,0,0,1,0-3.5,1.8,1.8,0,0,1,0,3.5Zm11.7,0a1.8,1.8,0,1,1,1.5-1.8A1.6,1.6,0,0,1,29.8,33.4Z" fill="#d5d5d5" />
</svg>
