<svg width="40" height="41.6" viewBox="-2 -2 46 46">
  <path
    d="M36.7,33.6A6.9,6.9,0,0,0,40,28.1V13.5a6.9,6.9,0,0,0-3.3-5.4L23.3.7a7.7,7.7,0,0,0-6.6,0L3.3,8.1A6.9,6.9,0,0,0,0,13.5V28.1a6.9,6.9,0,0,0,3.3,5.4l13.4,7.3a7.7,7.7,0,0,0,6.6,0Z"
    fill="#ffffff" fillRule="evenodd" stroke="#d5d5d5" strokeWidth="3px"
  />
  <path
    d="M30.4,13.8v14H9.6v-14Zm2.1-2H7.5v18H32.5ZM22.1,25.4v.4H11.7v-.4c0-1.1,0-1.7,1.4-2s2.9-.6,2.2-1.8c-2-3.6-.6-5.7,1.6-5.7s3.7,2,1.6,5.7c-.7,1.2.7,1.5,2.2,1.8S22.1,24.3,22.1,25.4Zm6.2-9.6H24.2v2h4.2Zm0,4H24.2v2h4.2Zm0,4H24.2v2h4.2Z"
    fill="#959595"
  />
</svg>
