<svg width="40" height="41.6" viewBox="-2 -2 46 46">
  <path
    d="M36.7,33.6A6.9,6.9,0,0,0,40,28.1V13.5a6.9,6.9,0,0,0-3.3-5.4L23.3.7a7.7,7.7,0,0,0-6.6,0L3.3,8.1A6.9,6.9,0,0,0,0,13.5V28.1a6.9,6.9,0,0,0,3.3,5.4l13.4,7.3a7.7,7.7,0,0,0,6.6,0Z"
    fill="#ffffff" fillRule="evenodd" stroke="#d5d5d5" strokeWidth="3px"
  />
  <path
    d="M27.7,21.7H24.8v.9h2.9Zm-6.8,0H12.3v.9H21Zm-2.9,1.8H12.3v.9h5.8Zm11.6-10H10.3a1.9,1.9,0,0,0-1.9,1.8V26.2a1.9,1.9,0,0,0,1.9,1.8H29.7a1.9,1.9,0,0,0,1.9-1.8V15.4A1.9,1.9,0,0,0,29.7,13.6Zm0,12.2a.5.5,0,0,1-.5.5H10.8a.5.5,0,0,1-.5-.5V19.9H29.7Zm0-8.6H10.3V15.8a.5.5,0,0,1,.5-.5H29.2a.5.5,0,0,1,.5.5Z"
    fill="#959595"
  />
</svg>
