<svg width="40" height="41.6" viewBox="-2 -2 46 46">
  <path
    d="M36.7,33.6A6.9,6.9,0,0,0,40,28.1V13.5a6.9,6.9,0,0,0-3.3-5.4L23.3.7a7.7,7.7,0,0,0-6.6,0L3.3,8.1A6.9,6.9,0,0,0,0,13.5V28.1a6.9,6.9,0,0,0,3.3,5.4l13.4,7.3a7.7,7.7,0,0,0,6.6,0Z"
    fill="#ffffff" fillRule="evenodd" stroke="#d5d5d5" strokeWidth="3px"
  />
  <path
    d="M25.4,19.1V15.8a5.2,5.2,0,0,0-5.4-5,5.2,5.2,0,0,0-5.4,5v3.3H11.9V30.8H28.1V19.1Zm-9,0V15.8A3.5,3.5,0,0,1,20,12.5a3.5,3.5,0,0,1,3.6,3.3v3.3Z"
    fill="#959595"
  />
</svg>
