<svg width="40" height="41.6" viewBox="-2 -2 46 46">
  <path
    d="M36.7,33.6A6.9,6.9,0,0,0,40,28.1V13.5a6.9,6.9,0,0,0-3.3-5.4L23.3.7a7.7,7.7,0,0,0-6.6,0L3.3,8.1A6.9,6.9,0,0,0,0,13.5V28.1a6.9,6.9,0,0,0,3.3,5.4l13.4,7.3a7.7,7.7,0,0,0,6.6,0Z"
    fill="#ffffff" fillRule="evenodd" stroke="#d5d5d5" strokeWidth="3px"
  />
  <path
    d="M25.8,21V18.6c-1.3-.4-2.2-.6-2.6-1.5s.1-1.6.7-2.8L22,12.6c-1.3.6-2,1-3,.6s-1.2-1.2-1.7-2.4H14.6c-.5,1.2-.6,2-1.7,2.4h0c-1,.4-1.7-.1-3-.6L8.1,14.3c.6,1.2,1.1,1.8.7,2.8s-1.3,1.1-2.6,1.5V21c1.3.4,2.2.6,2.6,1.5s-.1,1.6-.7,2.8L10,26.9c1.3-.6,2-1,3-.6h0c1,.4,1.2,1.2,1.7,2.4h2.6c.5-1.2.6-2,1.7-2.4h0c1-.4,1.7.1,3,.6l1.9-1.7c-.6-1.2-1.1-1.8-.7-2.8S24.4,21.4,25.8,21ZM16,22.7a3.1,3.1,0,0,1-3.3-3,3.1,3.1,0,0,1,3.3-3,3.1,3.1,0,0,1,3.3,3A3.1,3.1,0,0,1,16,22.7Zm17.9,4.4V26c-.6-.2-1-.3-1.2-.7s0-.7.3-1.3l-.9-.8c-.6.3-.9.5-1.4.3s-.6-.6-.8-1.1H28.6c-.2.6-.3.9-.8,1.1s-.8,0-1.4-.3l-.9.8c.3.6.5.9.3,1.3s-.6.5-1.2.7v1.1c.6.2,1,.3,1.2.7s0,.8-.3,1.3l.9.8c.6-.3.9-.5,1.4-.3s.6.6.8,1.1h1.2c.2-.6.3-.9.8-1.1h0c.5-.2.8,0,1.4.3l.9-.8c-.3-.5-.5-.9-.3-1.3S33.2,27.4,33.8,27.2Zm-4.6.8a1.4,1.4,0,1,1,1.5-1.4A1.5,1.5,0,0,1,29.2,28Z"
    fill="#959595"
  />
</svg>
