<svg width="40" height="41.6" viewBox="-2 -2 46 46">
  <path
    d="M36.7,33.6A6.9,6.9,0,0,0,40,28.1V13.5a6.9,6.9,0,0,0-3.3-5.4L23.3.7a7.7,7.7,0,0,0-6.6,0L3.3,8.1A6.9,6.9,0,0,0,0,13.5V28.1a6.9,6.9,0,0,0,3.3,5.4l13.4,7.3a7.7,7.7,0,0,0,6.6,0Z"
    fill="#ffffff" fillRule="evenodd" stroke="#d5d5d5" strokeWidth="3px"
  />
  <path
    d="M27,27.8H13v-.7c0-1.5.1-2.3,1.9-2.7s3.9-.9,3-2.6c-2.8-5.1-.8-8,2.2-8s4.9,2.8,2.2,8c-.9,1.7,1,2.1,3,2.6S27,25.6,27,27.1Zm5.6-2.6c-1.5-.3-2.9-.7-2.2-1.9,2.1-3.9.5-6-1.6-6A2.5,2.5,0,0,0,26.1,20c0,4.6,2.6,2.1,2.6,7.8H34v-.5C34,26.2,33.9,25.5,32.6,25.2ZM6,27.8h5.2c0-5.7,2.6-3.2,2.6-7.8a2.5,2.5,0,0,0-2.6-2.7c-2.2,0-3.7,2.1-1.6,6,.7,1.3-.7,1.6-2.2,1.9s-1.4.9-1.4,2Z"
    fill="#959595"
  />
</svg>
