<svg width="40" height="41.6" viewBox="-2 -2 46 46">
  <path
    d="M36.7,33.6A6.9,6.9,0,0,0,40,28.1V13.5a6.9,6.9,0,0,0-3.3-5.4L23.3.7a7.7,7.7,0,0,0-6.6,0L3.3,8.1A6.9,6.9,0,0,0,0,13.5V28.1a6.9,6.9,0,0,0,3.3,5.4l13.4,7.3a7.7,7.7,0,0,0,6.6,0Z"
    fill="#ffffff" fillRule="evenodd" stroke="#d5d5d5" strokeWidth="3px"
  />
  <path
    d="M20,9.8a11,11,0,1,0,11,11A11,11,0,0,0,20,9.8ZM20,30a9.2,9.2,0,0,1-7.1-15l3,3H14.8a.3.3,0,0,0-.3.4v.7a.6.6,0,0,0,.5.5h.1a2.6,2.6,0,0,0-.1,3,1,1,0,0,1,.2.6v.8a.7.7,0,0,0,.6.7h.7a.7.7,0,0,0,.6-.7V24a.2.2,0,0,1,.2-.2h4.1l4.1,4.1A9.1,9.1,0,0,1,20,30Zm3.2-7.6-.5-.2h-.1a1.1,1.1,0,0,1-.2-.7.8.8,0,1,1,.8,1Zm.2-3.8H19.1L17.5,17l.5-.3a6,6,0,0,1,2-.3,6.2,6.2,0,0,1,2,.3,1.9,1.9,0,0,1,1.1,1.1l.3.8C23.5,18.6,23.4,18.6,23.4,18.6Zm-5.7,2.8a.9.9,0,0,1-.8,1,1,1,0,0,1,0-2A.9.9,0,0,1,17.6,21.4Zm9.4,5.2-2.4-2.4v-.8a1,1,0,0,1,.2-.6,2.6,2.6,0,0,0-.1-3h.1a.7.7,0,0,0,.5-.6v-.7a.3.3,0,0,0-.3-.4h-.8l-.3-.2-.5-1c-.8-1.6-3.6-1.6-3.6-1.6a5.3,5.3,0,0,0-3.2,1.1l-2.6-2.6A9.2,9.2,0,0,1,27.1,26.6Z"
    fill="#959595"
  />
</svg>
