<svg width="40" height="41.6" viewBox="-2 -2 46 46">
  <path
    d="M36.7,33.6A6.9,6.9,0,0,0,40,28.1V13.5a6.9,6.9,0,0,0-3.3-5.4L23.3.7a7.7,7.7,0,0,0-6.6,0L3.3,8.1A6.9,6.9,0,0,0,0,13.5V28.1a6.9,6.9,0,0,0,3.3,5.4l13.4,7.3a7.7,7.7,0,0,0,6.6,0Z"
    fill="#ffffff" fillRule="evenodd" stroke="#d5d5d5" strokeWidth="3px"
  />
  <path
    d="M20,9.8a11,11,0,1,0,11,11A11,11,0,0,0,20,9.8Zm.9,14.7V21.7h2.7a17,17,0,0,1-.4,3Zm1.8,2a10.9,10.9,0,0,1-1.8,3.2V26.4Zm-1.8-6.6V17.1l2.3-.2a17,17,0,0,1,.4,3Zm0-4.6V11.9a11,11,0,0,1,1.8,3.2Zm2.5-3a9.2,9.2,0,0,1,3,2l-1.9.6A14,14,0,0,0,23.4,12.3ZM16.8,24.7a16.9,16.9,0,0,1-.4-3h2.7v2.8Zm2.3,1.6v3.3a10.9,10.9,0,0,1-1.8-3.2Zm-2.7-6.5a16.9,16.9,0,0,1,.4-3l2.3.2v2.8Zm.9-4.7a11,11,0,0,1,1.8-3.2v3.4Zm-1.8-.3-1.8-.6a9.2,9.2,0,0,1,3-2A14.2,14.2,0,0,0,15.4,14.8Zm-.5,1.8a18.7,18.7,0,0,0-.5,3.3H10.9a9.1,9.1,0,0,1,1.5-4.1Zm0,8.5-2.6.8a9.1,9.1,0,0,1-1.5-4.2h3.6A18.7,18.7,0,0,0,14.9,25.1Zm.5,1.8a14.1,14.1,0,0,0,1.2,2.5,9.2,9.2,0,0,1-3-1.9Zm9.1,0,1.8.5a9.2,9.2,0,0,1-3,1.9A14.2,14.2,0,0,0,24.5,26.8Zm.5-1.8a18.7,18.7,0,0,0,.5-3.3h3.6a9.1,9.1,0,0,1-1.5,4.2Zm.5-5.2a18.8,18.8,0,0,0-.5-3.3l2.6-.8a9.1,9.1,0,0,1,1.5,4.1Z"
    fill="#959595"
  />
</svg>
