<svg width="40" height="41.6" viewBox="-2 -2 46 46">
  <path
    d="M36.7,33.6A6.9,6.9,0,0,0,40,28.1V13.5a6.9,6.9,0,0,0-3.3-5.4L23.3.7a7.7,7.7,0,0,0-6.6,0L3.3,8.1A6.9,6.9,0,0,0,0,13.5V28.1a6.9,6.9,0,0,0,3.3,5.4l13.4,7.3a7.7,7.7,0,0,0,6.6,0Z"
    fill="#ffffff" fillRule="evenodd" stroke="#d5d5d5" strokeWidth="3px"
  />
  <path
    d="M20,9.8c-3,2.6-4.8,2.7-7.9,2.7V23.1c0,4.2,2.8,5.3,7.9,8.7,5.1-3.4,7.9-4.5,7.9-8.7V12.6C24.8,12.6,23,12.4,20,9.8ZM18.3,26.9l1.3-4.4H15.7l6-7.8-1.3,4.4h3.8Z"
    fill="#959595"
  />
</svg>
