<svg width="40" height="41.6" viewBox="-2 -2 46 46">
  <path
    d="M36.7,33.6A6.9,6.9,0,0,0,40,28.1V13.5a6.9,6.9,0,0,0-3.3-5.4L23.3.7a7.7,7.7,0,0,0-6.6,0L3.3,8.1A6.9,6.9,0,0,0,0,13.5V28.1a6.9,6.9,0,0,0,3.3,5.4l13.4,7.3a7.7,7.7,0,0,0,6.6,0Z"
    fill="#ffffff" fillRule="evenodd" stroke="#d5d5d5" strokeWidth="3px"
  />
  <path
    d="M26.8,25.6A1.9,1.9,0,0,1,25,23.5a1.9,1.9,0,0,1,1.7-2.1,1.9,1.9,0,0,1,1.7,2.1A1.9,1.9,0,0,1,26.8,25.6ZM20,17.7H12.9c-.1,0-.2-.2-.1-.3l.7-1.6a4.1,4.1,0,0,1,2.3-2.3,13.1,13.1,0,0,1,4.3-.6,13.5,13.5,0,0,1,4.3.6,4.1,4.1,0,0,1,2.3,2.3l.7,1.6c0,.1,0,.3-.1.3Zm-6.8,7.9a1.9,1.9,0,0,1-1.7-2.1,1.9,1.9,0,0,1,1.7-2.1A1.9,1.9,0,0,1,15,23.5,1.9,1.9,0,0,1,13.2,25.6ZM31.4,19l.3-1.5a.7.7,0,0,0-.6-.9H29.3a.8.8,0,0,1-.7-.5l-1-2C26,10.8,20,10.8,20,10.8s-6,0-7.6,3.4l-1,2a.8.8,0,0,1-.7.5H8.9a.7.7,0,0,0-.6.9l.3,1.5a1.3,1.3,0,0,0,1,1.1h.3a5.3,5.3,0,0,0-.1,6.2,2,2,0,0,1,.3,1.1v1.7a1.5,1.5,0,0,0,1.4,1.5h1.5a1.5,1.5,0,0,0,1.4-1.5v-.5a.4.4,0,0,1,.4-.5H25.3a.5.5,0,0,1,.4.5v.5a1.4,1.4,0,0,0,1.4,1.5h1.5a1.4,1.4,0,0,0,1.4-1.5V27.6a2,2,0,0,1,.3-1.1,5.3,5.3,0,0,0-.1-6.2h.3A1.5,1.5,0,0,0,31.4,19Z"
    fill="#959595"
  />
</svg>
