<svg width="40" height="41.6" viewBox="-2 -2 46 46">
  <path
    d="M36.7,33.6A6.9,6.9,0,0,0,40,28.1V13.5a6.9,6.9,0,0,0-3.3-5.4L23.3.7a7.7,7.7,0,0,0-6.6,0L3.3,8.1A6.9,6.9,0,0,0,0,13.5V28.1a6.9,6.9,0,0,0,3.3,5.4l13.4,7.3a7.7,7.7,0,0,0,6.6,0Z"
    fill="#ffffff" fillRule="evenodd" stroke="#d5d5d5" strokeWidth="3px"
  />
  <path
    d="M20,9.8a11,11,0,1,0,11,11A11,11,0,0,0,20,9.8ZM20,30a9.2,9.2,0,0,1-7.1-15L19,21.1l-.9.9a23.1,23.1,0,0,0-3.8-2.1l-1.2,1a56.6,56.6,0,0,1,5.5,5.4l2.1-3.4,5,5A9.1,9.1,0,0,1,20,30Zm7.1-3.4-5.2-5.2a27.1,27.1,0,0,1,5-5.3l-.4-.8a31.3,31.3,0,0,0-6.2,4.5l-6.1-6.1A9.2,9.2,0,0,1,27.1,26.6Z"
    fill="#959595"
  />
</svg>
