<svg width="40" height="41.6" viewBox="-2 -2 46 46">
  <path
    d="M36.7,33.6A6.9,6.9,0,0,0,40,28.1V13.5a6.9,6.9,0,0,0-3.3-5.4L23.3.7a7.7,7.7,0,0,0-6.6,0L3.3,8.1A6.9,6.9,0,0,0,0,13.5V28.1a6.9,6.9,0,0,0,3.3,5.4l13.4,7.3a7.7,7.7,0,0,0,6.6,0Z"
    fill="#ffffff" fillRule="evenodd" stroke="#d5d5d5" strokeWidth="3px"
  />
  <path
    d="M23.3,9.8H11.8v22H28.2V15.5Zm3.3,20.1H13.4V11.7h9v4.7h4.1Zm-7.4-5.6a13.5,13.5,0,0,0-2.3-1.5l-.7.7a36.9,36.9,0,0,1,3.3,3.8c1.9-3.6,3.2-5.4,5-7l-.2-.6A20.2,20.2,0,0,0,19.1,24.3Z"
    fill="#959595"
  />
</svg>
