<svg width="40" height="41.6" viewBox="-2 -2 46 46">
  <path
    d="M36.7,33.6A6.9,6.9,0,0,0,40,28.1V13.5a6.9,6.9,0,0,0-3.3-5.4L23.3.7a7.7,7.7,0,0,0-6.6,0L3.3,8.1A6.9,6.9,0,0,0,0,13.5V28.1a6.9,6.9,0,0,0,3.3,5.4l13.4,7.3a7.7,7.7,0,0,0,6.6,0Z"
    fill="#ffffff" fillRule="evenodd" stroke="#d5d5d5" strokeWidth="3px"
  />
  <path
    d="M22.4,17.4A29.9,29.9,0,0,0,10,30.8h2.7c.8-2,.1-2.4,1.3-3.7C21.8,30.9,30,24.3,30,15.6a14.6,14.6,0,0,0-.9-4.8c-2.2,3.2-5.2,1.1-10,1.6C12,13.3,8.8,19.3,11,24.1,14.2,20.7,19.8,17.7,22.4,17.4Z"
    fill="#959595"
  />
</svg>
